<svg width="1600" height="520" viewBox="0 0 1600 520" fill="none" xmlns="http://www.w3.org/2000/svg" role="img" aria-labelledby="title desc">
  <title id="title">PortalDevKit banner</title>
  <desc id="desc">A wide dark banner with the PortalDevKit logo, title, subtitle, and a subtle technical HUD grid.</desc>
  <rect width="1600" height="520" rx="40" fill="#08111B"/>
  <rect x="24" y="24" width="1552" height="472" rx="32" fill="url(#panel)" stroke="#233147" stroke-width="2"/>
  <g opacity="0.24">
    <path d="M72 90H1528" stroke="#2F435D" stroke-width="1"/>
    <path d="M72 142H1528" stroke="#2F435D" stroke-width="1"/>
    <path d="M72 194H1528" stroke="#2F435D" stroke-width="1"/>
    <path d="M72 246H1528" stroke="#2F435D" stroke-width="1"/>
    <path d="M72 298H1528" stroke="#2F435D" stroke-width="1"/>
    <path d="M72 350H1528" stroke="#2F435D" stroke-width="1"/>
    <path d="M72 402H1528" stroke="#2F435D" stroke-width="1"/>
    <path d="M170 72V448" stroke="#2F435D" stroke-width="1"/>
    <path d="M256 72V448" stroke="#2F435D" stroke-width="1"/>
    <path d="M342 72V448" stroke="#2F435D" stroke-width="1"/>
    <path d="M428 72V448" stroke="#2F435D" stroke-width="1"/>
    <path d="M514 72V448" stroke="#2F435D" stroke-width="1"/>
    <path d="M600 72V448" stroke="#2F435D" stroke-width="1"/>
    <path d="M686 72V448" stroke="#2F435D" stroke-width="1"/>
    <path d="M772 72V448" stroke="#2F435D" stroke-width="1"/>
    <path d="M858 72V448" stroke="#2F435D" stroke-width="1"/>
    <path d="M944 72V448" stroke="#2F435D" stroke-width="1"/>
    <path d="M1030 72V448" stroke="#2F435D" stroke-width="1"/>
    <path d="M1116 72V448" stroke="#2F435D" stroke-width="1"/>
    <path d="M1202 72V448" stroke="#2F435D" stroke-width="1"/>
    <path d="M1288 72V448" stroke="#2F435D" stroke-width="1"/>
    <path d="M1374 72V448" stroke="#2F435D" stroke-width="1"/>
    <path d="M1460 72V448" stroke="#2F435D" stroke-width="1"/>
  </g>
  <circle cx="194" cy="260" r="152" stroke="#32475F" stroke-width="18"/>
  <circle cx="194" cy="260" r="118" stroke="#1A2737" stroke-width="30"/>
  <circle cx="194" cy="260" r="102" stroke="#24D5D5" stroke-width="8" stroke-dasharray="20 16" opacity="0.95"/>
  <path d="M136 344V176C136 165 145 156 156 156H228C288 156 334 194 334 250C334 304 288 344 228 344H182V384H136Z" fill="#DCE7F3"/>
  <path d="M182 206V306H225C263 306 289 282 289 251C289 220 264 206 225 206H182Z" fill="#08111B"/>
  <path d="M112 400L172 366" stroke="#F2B74D" stroke-width="10" stroke-linecap="round"/>
  <path d="M310 148L262 182" stroke="#F2B74D" stroke-width="10" stroke-linecap="round"/>
  <path d="M318 336L266 304" stroke="#8CE7C4" stroke-width="10" stroke-linecap="round"/>
  <circle cx="104" cy="406" r="12" fill="#F2B74D"/>
  <circle cx="328" cy="138" r="12" fill="#24D5D5"/>
  <circle cx="334" cy="340" r="12" fill="#8CE7C4"/>
  <circle cx="114" cy="150" r="12" fill="#FF7E74"/>
  <text x="420" y="216" fill="#F4F7FB" font-size="64" font-family="Inter, Segoe UI, Arial, sans-serif" font-weight="800" letter-spacing="0">PortalDevKit</text>
  <text x="422" y="274" fill="#AEBCCE" font-size="24" font-family="Inter, Segoe UI, Arial, sans-serif" font-weight="500" letter-spacing="0">Community knowledge base for Meta Portal sideloading, quirks, and app dev</text>
  <g transform="translate(420 314)">
    <rect width="158" height="34" rx="17" fill="#122033" stroke="#2C3F58"/>
    <text x="18" y="23" fill="#8CE7C4" font-size="16" font-family="Inter, Segoe UI, Arial, sans-serif" font-weight="700">Portal hardware</text>
    <rect x="170" width="130" height="34" rx="17" fill="#122033" stroke="#2C3F58"/>
    <text x="188" y="23" fill="#24D5D5" font-size="16" font-family="Inter, Segoe UI, Arial, sans-serif" font-weight="700">Sideloading</text>
    <rect x="312" width="152" height="34" rx="17" fill="#122033" stroke="#2C3F58"/>
    <text x="330" y="23" fill="#F2B74D" font-size="16" font-family="Inter, Segoe UI, Arial, sans-serif" font-weight="700">Field reports</text>
  </g>
  <path d="M910 132C996 132 1040 168 1088 226C1130 278 1176 314 1250 314" stroke="#24D5D5" stroke-width="3" stroke-dasharray="6 10" opacity="0.7"/>
  <path d="M900 368C992 368 1044 330 1100 278C1156 226 1210 196 1290 196" stroke="#F2B74D" stroke-width="3" stroke-dasharray="6 10" opacity="0.7"/>
  <circle cx="1088" cy="226" r="10" fill="#24D5D5"/>
  <circle cx="1100" cy="278" r="10" fill="#F2B74D"/>
  <circle cx="1290" cy="196" r="10" fill="#8CE7C4"/>
  <circle cx="1250" cy="314" r="10" fill="#FF7E74"/>
  <text x="904" y="422" fill="#74879D" font-size="18" font-family="SFMono-Regular, Consolas, monospace">portal knowledge / app previews / device notes / compatibility / fixes</text>
  <defs>
    <linearGradient id="panel" x1="58" y1="36" x2="1542" y2="484" gradientUnits="userSpaceOnUse">
      <stop stop-color="#0E1724"/>
      <stop offset="1" stop-color="#08111B"/>
    </linearGradient>
  </defs>
</svg>
