<svg width="1024" height="1024" viewBox="0 0 1024 1024" fill="none" xmlns="http://www.w3.org/2000/svg" role="img" aria-labelledby="title desc">
  <title id="title">PortalDevKit logo</title>
  <desc id="desc">A dark technical badge with a P monogram, a portal ring, and a small knowledge-node motif.</desc>
  <rect width="1024" height="1024" rx="176" fill="#0A101A"/>
  <rect x="64" y="64" width="896" height="896" rx="144" fill="url(#bg)" stroke="#223044" stroke-width="4"/>
  <circle cx="512" cy="512" r="276" stroke="#2E425D" stroke-width="24"/>
  <circle cx="512" cy="512" r="220" stroke="#0F1B29" stroke-width="40"/>
  <circle cx="512" cy="512" r="188" stroke="#24D5D5" stroke-width="8" stroke-dasharray="24 18" opacity="0.95"/>
  <circle cx="512" cy="512" r="120" stroke="#8CE7C4" stroke-width="4" stroke-dasharray="4 14" opacity="0.65"/>
  <path d="M372 676V348C372 323 392 303 417 303H543C646 303 724 370 724 470C724 567 647 634 544 634H478V676H372Z" fill="#DCE7F3"/>
  <path d="M478 398V541H546C604 541 644 506 644 470C644 431 606 398 546 398H478Z" fill="#0A101A"/>
  <path d="M312 676L368 640" stroke="#F2B74D" stroke-width="10" stroke-linecap="round"/>
  <path d="M738 360L686 398" stroke="#F2B74D" stroke-width="10" stroke-linecap="round"/>
  <path d="M704 704L648 660" stroke="#F2B74D" stroke-width="10" stroke-linecap="round"/>
  <path d="M320 372L372 410" stroke="#F2B74D" stroke-width="10" stroke-linecap="round"/>
  <circle cx="294" cy="686" r="18" fill="#24D5D5"/>
  <circle cx="730" cy="338" r="18" fill="#8CE7C4"/>
  <circle cx="742" cy="706" r="18" fill="#F2B74D"/>
  <circle cx="290" cy="336" r="18" fill="#FF7E74"/>
  <path d="M392 226H632" stroke="#2E425D" stroke-width="8" stroke-linecap="round"/>
  <path d="M408 798H616" stroke="#2E425D" stroke-width="8" stroke-linecap="round"/>
  <defs>
    <linearGradient id="bg" x1="120" y1="104" x2="920" y2="920" gradientUnits="userSpaceOnUse">
      <stop stop-color="#111926"/>
      <stop offset="0.6" stop-color="#0A101A"/>
      <stop offset="1" stop-color="#0E1623"/>
    </linearGradient>
  </defs>
</svg>
